<?xml version="1.0" encoding="UTF-8" standalone="no"?><!DOCTYPE svg PUBLIC "-//W3C//DTD SVG 1.1//EN" "http://www.w3.org/Graphics/SVG/1.1/DTD/svg11.dtd"><svg width="100%" height="100%" viewBox="0 0 359 510" version="1.1" xmlns="http://www.w3.org/2000/svg" xmlns:xlink="http://www.w3.org/1999/xlink" xml:space="preserve" xmlns:serif="http://www.serif.com/" style="fill-rule:evenodd;clip-rule:evenodd;"><path d="M179.57,1.6l142,217.2c91,139.2 -4.7,289.6 -142.1,289.6c-137.4,0 -233.2,-150.5 -142.1,-289.6l142.2,-217.2Zm50.6,252.6c-30.3,-66.3 -99,-93.9 -161.5,-42.3c-54.7,47.1 -64.8,147.7 -24.1,209.4c25.1,38 51.1,71.1 136.2,72.3c85.1,1.2 169.1,-62.3 158.6,-162.2c-0.9,-7.9 -1.7,-24.4 -1.7,-24.4c-78.4,137 -184.7,116.4 -212.9,34.2c-13,-37.8 27.8,-118.7 105.4,-87Z" style="stroke:#000;stroke-width:3.19px;"/></svg>