<?xml version="1.0" encoding="UTF-8" standalone="no"?><!DOCTYPE svg PUBLIC "-//W3C//DTD SVG 1.1//EN" "http://www.w3.org/Graphics/SVG/1.1/DTD/svg11.dtd"><svg width="100%" height="100%" viewBox="0 0 2134 2134" version="1.1" xmlns="http://www.w3.org/2000/svg" xmlns:xlink="http://www.w3.org/1999/xlink" xml:space="preserve" xmlns:serif="http://www.serif.com/" style="fill-rule:evenodd;clip-rule:evenodd;stroke-linejoin:round;stroke-miterlimit:2;"><g id="g18"><g id="g2248"><path id="path568" d="M365.303,1254.009l184.32,-216.177l1381.259,-4.551l-179.768,220.728l-1385.81,0Z" style="fill-rule:nonzero;"/><path id="path572" d="M1159.47,1351.857c22.755,-11.378 56.889,-47.787 36.409,-84.195c-4.551,-6.827 -6.827,-11.378 -11.378,-13.653l93.298,0c-11.378,27.307 -54.613,59.164 -54.613,59.164c0,0 -4.551,6.827 -22.755,22.755c-13.653,6.827 -29.582,13.653 -40.96,15.929m-275.342,-2.276c-11.378,-4.551 -27.307,-13.653 -38.684,-27.307c-20.48,-20.48 -22.755,-47.787 -22.755,-47.787l-13.653,-22.755l54.613,0c-4.551,2.276 -6.827,6.827 -11.378,13.653c-20.48,36.409 11.378,70.542 31.858,84.195m254.862,-9.102c-11.378,-2.276 -34.133,-4.551 -56.889,-11.378c-34.133,-11.378 -52.338,-36.409 -52.338,-36.409c0,0 -36.409,22.755 -86.471,31.858c-15.929,2.276 -27.307,4.551 -34.133,4.551c0,-15.929 -4.551,-34.133 -4.551,-34.133c0,0 -9.102,-29.582 -22.755,-38.684l286.719,0c-13.653,9.102 -22.755,38.684 -22.755,38.684c0,0 -6.827,25.031 -6.827,45.511" style="fill-rule:nonzero;"/><path id="path574" d="M902.333,1292.693c0,0 11.378,54.613 0,61.44c-11.378,6.827 -79.644,-40.96 -50.062,-88.746c27.307,-45.511 50.062,27.307 50.062,27.307" style="fill-rule:nonzero;"/><path id="path576" d="M1143.541,1292.693c0,0 -11.378,54.613 0,61.44c11.378,6.827 79.644,-40.96 50.062,-88.746c-27.307,-45.511 -50.062,27.307 -50.062,27.307" style="fill-rule:nonzero;"/><path id="path578" d="M738.494,833.032c13.653,61.44 -27.307,120.604 -86.471,131.982c-61.44,13.653 -120.604,-27.307 -131.982,-86.471c-13.653,-61.44 27.307,-120.604 86.471,-131.982c59.164,-13.653 118.329,25.031 131.982,86.471" style="fill-rule:nonzero;"/><path id="path580" d="M695.258,764.765c-25.031,-18.204 -56.889,-25.031 -88.746,-18.204c-61.44,13.653 -100.124,72.818 -86.471,131.982c2.276,13.653 6.827,25.031 13.653,36.409c47.787,-15.929 122.88,-56.889 161.564,-150.186" style="fill-rule:nonzero;"/><path id="path584" d="M1457.567,812.552c-25.031,0 -50.062,-15.929 -59.164,-43.235c-11.378,-31.858 6.827,-68.266 38.684,-77.369c18.204,-6.827 104.675,-40.96 79.644,-122.88c-18.204,-59.164 -54.613,-68.266 -159.288,-79.644c-20.48,-2.276 -38.684,-4.551 -59.164,-6.827c-75.093,-11.378 -129.706,-40.96 -163.84,-91.022c-50.062,-72.818 -29.582,-157.013 -27.307,-166.115c9.102,-34.133 43.235,-52.338 75.093,-45.511c34.133,9.102 52.338,43.235 45.511,75.093c0,0 -9.102,38.684 11.378,65.991c13.653,20.48 38.684,31.858 77.369,36.409l54.613,6.827c97.849,11.378 220.728,22.755 266.239,163.84c47.787,150.186 -68.266,248.035 -159.288,277.617c-6.827,6.827 -13.653,6.827 -20.48,6.827" style="fill-rule:nonzero;"/><path id="path588" d="M1236.839,323.309l-2.276,-2.276c-40.96,25.031 -93.298,31.858 -120.604,31.858c4.551,13.653 11.378,25.031 20.48,38.684c11.378,15.929 25.031,29.582 40.96,43.235c54.613,-9.102 97.849,-50.062 122.88,-77.369c-29.582,-6.827 -50.062,-18.204 -61.44,-34.133" style="fill-rule:nonzero;"/><path id="path590" d="M1368.821,491.699c45.511,4.551 75.093,9.102 97.849,18.204c15.929,-25.031 36.409,-68.266 45.511,-116.053c-31.858,-13.653 -68.266,-20.48 -102.4,-25.031c2.276,34.133 0,86.471 -40.96,122.88" style="fill-rule:nonzero;"/><path id="path592" d="M1641.887,646.437c6.827,-27.307 6.827,-59.164 0,-93.298c-11.378,9.102 -27.307,18.204 -47.787,25.031c-34.133,9.102 -56.889,9.102 -72.818,6.827c6.827,34.133 -6.827,59.164 -25.031,75.093c54.613,20.48 109.226,4.551 145.635,-13.653" style="fill-rule:nonzero;"/><path id="path594" d="M1521.283,612.304l0,-27.307c0,-4.551 -2.276,-11.378 -4.551,-15.929c2.276,4.551 2.276,6.827 2.276,11.378c4.551,11.378 4.551,22.755 2.276,31.858m-2.276,-43.235c-9.102,-29.582 -25.031,-47.787 -50.062,-59.164c25.031,11.378 38.684,29.582 50.062,59.164m-150.186,-77.369c-4.551,0 -9.102,0 -11.378,-2.276c-20.48,-2.276 -38.684,-4.551 -59.164,-6.827l-2.276,0l2.276,0c20.48,2.276 40.96,4.551 59.164,6.827c4.551,2.276 9.102,2.276 11.378,2.276" style="fill-rule:nonzero;"/><path id="path596" d="M1632.785,673.743c-6.827,-4.551 -13.653,-9.102 -20.48,-15.929c11.378,-4.551 20.48,-9.102 29.582,-13.653c-2.276,11.378 -4.551,20.48 -9.102,29.582m-91.022,-91.022c-9.102,0 -15.929,0 -20.48,-2.276c0,-4.551 -2.276,-6.827 -2.276,-11.378c-9.102,-29.582 -25.031,-47.787 -50.062,-59.164c4.551,-9.102 11.378,-20.48 18.204,-34.133c31.858,13.653 52.338,31.858 68.266,63.715c6.827,13.653 9.102,27.307 6.827,40.96c-6.827,2.276 -13.653,2.276 -20.48,2.276m-172.942,-91.022c-4.551,0 -9.102,0 -11.378,-2.276c-20.48,-2.276 -38.684,-4.551 -59.164,-6.827l-2.276,0c-54.613,-9.102 -100.124,-27.307 -131.982,-59.164l11.378,11.378c6.827,0 13.653,-2.276 18.204,-4.551c31.858,9.102 70.542,18.204 118.329,20.48c31.858,2.276 59.164,4.551 84.195,6.827c-6.827,11.378 -13.653,22.755 -27.307,34.133" style="fill-rule:nonzero;"/><path id="path598" d="M1173.124,434.811c-4.551,-2.276 -9.102,-6.827 -11.378,-11.378c-4.551,-2.276 -6.827,-6.827 -9.102,-9.102c11.378,4.551 25.031,11.378 40.96,15.929c-6.827,2.276 -13.653,2.276 -20.48,4.551" style="fill-rule:nonzero;"/><path id="path600" d="M1468.945,509.904c-22.755,-9.102 -54.613,-13.653 -97.849,-18.204c11.378,-11.378 20.48,-22.755 27.307,-34.133c36.409,4.551 65.991,9.102 91.022,18.204c-9.102,13.653 -15.929,25.031 -20.48,34.133" style="fill-rule:nonzero;"/><path id="path602" d="M1612.305,657.815c-27.307,-18.204 -56.889,-34.133 -91.022,-45.511c2.276,-9.102 2.276,-20.48 0,-31.858c4.551,0 11.378,2.276 20.48,2.276c6.827,0 13.653,0 20.48,-2.276c0,6.827 -2.276,13.653 -2.276,18.204c29.582,13.653 56.889,27.307 81.92,45.511c-9.102,6.827 -20.48,11.378 -29.582,13.653" style="fill-rule:nonzero;"/><path id="path604" d="M1616.856,541.762c0,0 -50.062,-70.542 -113.777,-104.675c2.276,-9.102 4.551,-15.929 6.827,-25.031c11.378,4.551 20.48,11.378 27.307,18.204c56.889,43.235 79.644,111.502 79.644,111.502m-207.075,-143.36c-36.409,-13.653 -63.715,-20.48 -63.715,-20.48c0,0 27.307,0 63.715,6.827l0,13.653Z" style="fill-rule:nonzero;"/><path id="path606" d="M1503.078,434.811c-4.551,-2.276 -11.378,-4.551 -15.929,-9.102c-27.307,-11.378 -52.338,-20.48 -75.093,-29.582l0,-13.653c31.858,4.551 68.266,13.653 97.849,27.307c-2.276,9.102 -4.551,18.204 -6.827,25.031" style="fill-rule:nonzero;"/><path id="path608" d="M938.742,739.734c0,0 163.84,-193.422 498.345,-147.911c334.506,47.787 457.386,482.417 457.386,482.417l-143.36,179.768l-812.371,0l0,-514.274Z" style="fill-rule:nonzero;"/><path id="path610" d="M991.08,691.948c36.409,-9.102 91.022,-18.204 179.768,-11.378c211.626,13.653 484.692,352.71 484.692,352.71c0,0 -120.604,-384.568 -507.448,-420.977c-70.542,22.755 -122.88,54.613 -157.013,79.644" style="fill-rule:nonzero;"/><path id="path612" d="M1650.989,1199.395l-47.787,0c-13.653,-36.409 -79.644,-209.351 -184.32,-300.373c-86.471,-75.093 -211.626,-161.564 -368.639,-168.391l22.755,0c113.777,0 211.626,40.96 288.995,93.298l0,-4.551c2.276,-15.929 9.102,-29.582 18.204,-43.235c63.715,45.511 122.88,100.124 168.391,147.911c-11.378,11.378 -25.031,18.204 -38.684,25.031c81.92,91.022 131.982,218.453 141.084,250.31m-70.542,-316.301c-31.858,-50.062 -77.369,-104.675 -134.257,-150.186c2.276,0 2.276,0 4.551,-2.276l2.276,0c2.276,0 6.827,0 9.102,-2.276l25.031,0c4.551,0 6.827,0 11.378,2.276c61.44,13.653 100.124,72.818 86.471,131.982c0,9.102 -2.276,13.653 -4.551,20.48" style="fill-rule:nonzero;"/><path id="path614" d="M1553.14,921.778c-45.511,-47.787 -104.675,-102.4 -168.391,-147.911c6.827,-9.102 15.929,-18.204 25.031,-25.031c2.276,-2.276 6.827,-4.551 9.102,-6.827c2.276,-2.276 6.827,-4.551 9.102,-4.551c2.276,-2.276 6.827,-2.276 9.102,-4.551l2.276,0c2.276,0 2.276,0 4.551,-2.276c59.164,47.787 102.4,102.4 134.257,150.186c-2.276,6.827 -4.551,11.378 -9.102,15.929c-2.276,11.378 -9.102,18.204 -15.929,25.031" style="fill-rule:nonzero;"/><path id="path616" d="M1318.759,817.103c-13.653,61.44 27.307,120.604 86.471,131.982c61.44,13.653 120.604,-27.307 131.982,-86.471c13.653,-61.44 -27.307,-120.604 -86.471,-131.982c-59.164,-11.378 -120.604,27.307 -131.982,86.471" style="fill-rule:nonzero;"/><path id="path618" d="M1361.994,751.112c25.031,-18.204 56.889,-25.031 88.746,-18.204c61.44,13.653 100.124,72.818 86.471,131.982c-2.276,13.653 -6.827,25.031 -13.653,36.409c-50.062,-18.204 -125.155,-56.889 -161.564,-150.186" style="fill-rule:nonzero;"/><path id="path622" d="M506.387,1254.009l-54.613,-56.889c0,0 175.217,-357.261 418.701,-441.457c241.208,-81.92 432.354,40.96 550.683,143.36c118.329,102.4 186.595,307.199 186.595,307.199l-43.235,47.787l-1058.131,-0Z" style="fill-rule:nonzero;"/><path id="path624" d="M786.28,901.298c0,0 197.973,-157.013 236.657,-157.013c38.684,0 227.555,136.533 227.555,136.533l-31.858,38.684c0,0 -166.115,-134.257 -197.973,-134.257c-31.858,0 -186.595,134.257 -186.595,134.257l-47.787,-18.204Z" style="fill-rule:nonzero;"/><path id="path626" d="M884.129,960.463c0,0 113.777,-95.573 145.635,-95.573c31.858,0 141.084,84.195 141.084,84.195l-29.582,56.889c0,0 -86.471,-93.298 -111.502,-93.298c-25.031,0 -122.88,86.471 -122.88,86.471l-22.755,-38.684Z" style="fill-rule:nonzero;"/><path id="path628" d="M451.774,1197.12l152.462,-52.338c0,0 -50.062,-159.288 93.298,-236.657c143.36,-77.369 207.075,2.276 225.279,47.787c20.48,45.511 20.48,166.115 20.48,166.115l170.666,0c0,0 -2.276,-179.768 70.542,-229.831c72.818,-50.062 182.044,-56.889 225.279,36.409c43.235,95.573 0,177.493 0,177.493l195.697,97.849l-43.235,47.787l-1055.855,0l-54.613,-54.613Z" style="fill-rule:nonzero;"/><path id="path642" d="M1751.113,1254.009l-141.084,0l43.235,-47.787c0,0 0,-2.276 -2.276,-6.827l100.124,0l131.982,-161.564c9.102,22.755 11.378,36.409 11.378,36.409l-143.36,179.768Z" style="fill-rule:nonzero;"/><path id="path644" d="M1610.029,1254.009l-47.787,0l43.235,-47.787c0,0 0,-2.276 -2.276,-6.827l47.787,0c2.276,4.551 2.276,6.827 2.276,6.827l-43.235,47.787Z" style="fill-rule:nonzero;"/><path id="path646" d="M1607.754,1206.222l-13.653,-6.827l11.378,0c0,4.551 2.276,6.827 2.276,6.827" style="fill-rule:nonzero;"/><path id="path648" d="M1562.243,1254.009l-1055.855,0l-54.613,-54.613l1140.05,0l13.653,6.827l-43.235,47.787Z" style="fill-rule:nonzero;"/><path id="path650" d="M922.813,1106.098c0,0 -63.715,15.929 -88.746,77.369c-22.755,61.44 9.102,106.951 61.44,118.329c54.613,11.378 131.982,-27.307 131.982,-27.307c0,0 63.715,61.44 141.084,45.511c77.369,-15.929 102.4,-102.4 63.715,-157.013c-36.409,-52.338 -127.431,-59.164 -127.431,-59.164c0,0 -138.809,40.96 -182.044,2.276" style="fill-rule:nonzero;"/><path id="path652" d="M1029.764,1274.489c0,0 2.276,2.276 9.102,6.827l0,-97.849c0,-4.551 -4.551,-6.827 -6.827,-6.827c-4.551,0 -6.827,4.551 -6.827,6.827l0,93.298c2.276,0 4.551,-2.276 4.551,-2.276" style="fill-rule:nonzero;"/><path id="path654" d="M1113.959,1174.364c0,0 50.062,-59.164 18.204,-84.195c-31.858,-25.031 -63.715,18.204 -104.675,13.653c-40.96,-4.551 -84.195,-34.133 -100.124,-6.827c-18.204,29.582 27.307,63.715 27.307,63.715c0,0 11.378,-29.582 36.409,-15.929c25.031,13.653 4.551,45.511 4.551,45.511c0,0 18.204,13.653 34.133,15.929c15.929,2.276 40.96,-18.204 40.96,-18.204c0,0 -13.653,-34.133 13.653,-47.787c25.031,-13.653 29.582,34.133 29.582,34.133" style="fill-rule:nonzero;"/><path id="path656" d="M617.889,992.32c0,0 -38.684,50.062 -34.133,122.88c2.276,72.818 109.226,138.809 109.226,138.809l-40.96,-63.715c-11.378,-15.929 -6.827,-36.409 9.102,-50.062l63.715,-52.338c0,0 -86.471,27.307 -102.4,6.827c-15.929,-20.48 -4.551,-102.4 -4.551,-102.4" style="fill-rule:nonzero;"/><path id="path658" d="M1418.883,949.085c0,0 -6.827,63.715 -22.755,95.573c-15.929,31.858 -70.542,18.204 -70.542,18.204c0,0 61.44,31.858 61.44,50.062c0,20.48 -40.96,81.92 -40.96,81.92c0,0 134.257,-84.195 72.818,-245.759" style="fill-rule:nonzero;"/><path id="path660" d="M615.614,1254.009c0,0 -27.307,-20.48 -43.235,-47.787c-18.204,-27.307 -22.755,-45.511 -22.755,-45.511c0,0 -2.276,36.409 9.102,61.44c11.378,25.031 18.204,31.858 18.204,31.858l38.684,0Z" style="fill-rule:nonzero;"/><path id="path662" d="M1439.363,1254.009c0,0 25.031,-20.48 47.787,-59.164c22.755,-38.684 29.582,-88.746 29.582,-88.746c0,0 11.378,72.818 4.551,102.4c-6.827,31.858 -18.204,43.235 -18.204,43.235l-63.715,0" style="fill-rule:nonzero;"/><path id="path664" d="M1539.487,621.406c-31.858,-13.653 -65.991,-22.755 -102.4,-29.582c-31.858,-4.551 -59.164,-6.827 -88.746,-6.827c54.613,13.653 168.391,47.787 259.413,131.982c125.155,113.777 172.942,218.453 172.942,218.453c0,0 -75.093,-207.075 -241.208,-314.026" style="fill-rule:nonzero;"/><path id="path666" d="M1616.856,760.214c0,0 81.92,63.715 129.706,188.871c47.787,125.155 47.787,157.013 47.787,157.013l-204.799,-257.137l136.533,125.155c-2.276,0 -6.827,-72.818 -109.226,-213.902" style="fill-rule:nonzero;"/><path id="path668" d="M1930.882,1033.28l-179.768,220.728l0,511.999c13.653,-18.204 29.582,-27.307 45.511,-27.307c15.929,0 31.858,9.102 43.235,25.031l88.746,-161.564l0,-568.887l2.276,0Z" style="fill-rule:nonzero;"/><path id="path670" d="M1557.692,1458.808l79.644,0l0,-68.266l36.409,0l-77.369,-86.471l-77.369,86.471l36.409,0l0,68.266" style="fill-rule:nonzero;"/><rect id="path672" x="1519.007" y="1479.288" width="152.462" height="27.307" style="fill-rule:nonzero;"/><path id="path674" d="M1546.314,666.917c-38.684,-13.653 -91.022,-27.307 -147.911,-29.582l-22.755,0c-31.858,0 -63.715,2.276 -93.298,2.276l-47.787,-13.653c36.409,-9.102 81.92,-15.929 131.982,-15.929c13.653,0 27.307,0 40.96,2.276c18.204,2.276 36.409,4.551 52.338,6.827c25.031,13.653 56.889,29.582 86.471,47.787" style="fill-rule:nonzero;"/><path id="path676" d="M1141.266,655.539c0,0 36.409,-15.929 91.022,-29.582l47.787,13.653c-75.093,6.827 -138.809,15.929 -138.809,15.929" style="fill-rule:nonzero;"/><path id="path678" d="M1607.754,694.223c0,0 -22.755,-13.653 -61.44,-27.307c-29.582,-20.48 -59.164,-34.133 -88.746,-47.787c104.675,22.755 150.186,75.093 150.186,75.093" style="fill-rule:nonzero;"/><path id="path1131" d="M1066.173,0.181c-589.367,0 -1067.233,477.865 -1067.233,1067.233c0,589.367 477.865,1067.233 1067.233,1067.233c589.367,0 1067.233,-477.865 1067.233,-1067.233c0,-589.367 -477.865,-1067.233 -1067.233,-1067.233m0,213.902c471.039,0 853.331,382.292 853.331,853.331c0,471.039 -382.292,853.331 -853.331,853.331c-471.039,0 -853.331,-382.292 -853.331,-853.331c0,-471.039 382.292,-853.331 853.331,-853.331"/><path id="path586" d="M1236.839,323.309c-18.204,-27.307 -11.378,-65.991 -11.378,-65.991c9.102,-34.133 -11.378,-65.991 -45.511,-75.093c-34.133,-9.102 -65.991,11.378 -75.093,45.511c-2.276,9.102 -20.48,86.471 22.755,157.013c34.133,-6.827 81.92,-20.48 116.053,-52.338c0,-4.551 -4.551,-6.827 -6.827,-9.102" style="fill-rule:nonzero;"/></g></g></svg>